<svg width="142" height="56" viewBox="0 0 142 56" fill="none" xmlns="http://www.w3.org/2000/svg">
<path fill-rule="evenodd" clip-rule="evenodd" d="M20.4842 50.5697V51.8812H3.31055V50.5697C5.00609 50.452 6.14345 50.0947 6.72262 49.4978C7.30179 48.901 7.59137 47.6862 7.59137 45.8535V23.0291C7.59137 21.0787 7.29759 19.8471 6.71003 19.3343C6.12246 18.8215 4.9893 18.4726 3.31055 18.2877V16.9762H19.905C24.3034 16.9762 27.6483 17.6908 29.9398 19.1199C32.2313 20.5491 33.3771 23.0039 33.3771 26.4843C33.3771 28.1824 32.928 29.7755 32.0299 31.2635C31.1317 32.7515 29.6502 33.9495 27.5854 34.8574C26.0241 35.4963 24.4629 35.8831 22.9016 36.0176C21.3404 36.1521 19.0237 36.2193 15.9516 36.2193V45.8535C15.9516 47.7534 16.2705 48.9976 16.9085 49.5861C17.5464 50.1746 18.7383 50.5025 20.4842 50.5697ZM15.9519 20.5575V34.4287C19.024 34.3782 21.0721 34.0251 22.0961 33.3694C23.7245 32.327 24.5387 30.0824 24.5387 26.6356C24.5387 24.2817 24.1442 22.3818 23.3552 20.9358C22.5661 19.4898 21.0553 18.7668 18.8225 18.7668C17.7985 18.7668 17.064 18.8887 16.6192 19.1325C16.1743 19.3763 15.9519 19.8513 15.9519 20.5575ZM46.8537 52.6126C48.6164 52.6126 50.1777 52.2847 51.5375 51.629C53.6359 50.6033 55.4826 48.7791 57.0774 46.1561L55.8938 45.4248C54.9202 46.5008 54.106 47.2658 53.4513 47.7198C52.3769 48.4764 51.2353 48.8547 50.0266 48.8547C47.4917 48.8547 45.7206 47.434 44.7133 44.5925C44.1593 43.0793 43.8236 41.2886 43.7061 39.2205H56.8507C56.8507 38.7498 56.792 38.0688 56.6745 37.1777C56.4394 35.2778 56.0198 33.7309 55.4154 32.5371C54.6096 30.9567 53.4597 29.7209 51.9656 28.8298C50.4715 27.9386 48.8766 27.4931 47.1811 27.4931C44.2097 27.4931 41.6706 28.5902 39.5637 30.7843C37.4569 32.9785 36.4035 36.0596 36.4035 40.0276C36.4035 44.4159 37.5115 47.6105 39.7274 49.6113C41.9434 51.6121 44.3188 52.6126 46.8537 52.6126ZM43.5803 37.3038H50.5052C50.4716 34.2605 50.2366 32.1336 49.8001 30.923C49.3636 29.7125 48.4907 29.1072 47.1812 29.1072C45.8382 29.1072 44.9191 29.8049 44.4239 31.2005C43.9286 32.596 43.6474 34.6304 43.5803 37.3038ZM78.789 52.6126C79.6452 52.6126 80.4594 52.4612 81.2316 52.1586C82.4571 51.6878 83.5734 50.8639 84.5807 49.687L83.8001 48.6025C83.4643 48.9388 83.2167 49.1448 83.0572 49.2204C82.8977 49.2961 82.7173 49.3339 82.5158 49.3339C82.2808 49.3339 82.0668 49.2036 81.8737 48.943C81.6806 48.6824 81.5841 48.3671 81.5841 47.9972V35.4879C81.5841 32.4279 80.6104 30.3262 78.6631 29.1828C76.6989 28.0563 74.2564 27.4931 71.3353 27.4931C68.6158 27.4931 66.3243 28.0731 64.4608 29.2333C62.5974 30.3934 61.6657 31.9655 61.6657 33.9495C61.6657 35.0592 62.0141 35.9083 62.7107 36.4967C63.4074 37.0852 64.251 37.3795 65.2415 37.3795C66.0976 37.3795 66.8489 37.1146 67.4952 36.585C68.1415 36.0554 68.4647 35.303 68.4647 34.3278C68.4647 33.9411 68.3933 33.5754 68.2506 33.2307C68.1079 32.886 67.9191 32.5708 67.684 32.2849L67.3819 31.9319C67.2476 31.7805 67.1468 31.6376 67.0797 31.5031C67.0125 31.3686 66.979 31.2005 66.979 30.9987C66.979 30.4775 67.2769 30.0445 67.8729 29.6999C68.4689 29.3552 69.2285 29.1828 70.1518 29.1828C71.797 29.1828 72.9427 29.5485 73.5891 30.2799C74.2354 31.0113 74.5585 32.142 74.5585 33.6721V37.4299C69.7909 38.8086 66.2907 40.1789 64.0579 41.5408C61.8252 42.9027 60.7088 44.7438 60.7088 47.0641C60.7088 48.964 61.3216 50.3637 62.5471 51.2633C63.7725 52.1628 65.0904 52.6126 66.5005 52.6126C67.5581 52.6126 68.6325 52.4276 69.7237 52.0577C71.52 51.4692 73.1316 50.4604 74.5585 49.0313C74.7432 50.0233 75.037 50.7715 75.4399 51.2759C76.145 52.167 77.2613 52.6126 78.789 52.6126ZM68.9804 48.0603C69.4925 48.6404 70.0674 48.9304 70.7054 48.9304C71.5447 48.9304 72.3254 48.6782 73.0472 48.1738C73.4501 47.8712 73.9286 47.4004 74.4826 46.7615V39.2206C73.106 39.5568 71.8973 40.0865 70.8565 40.8095C69.0938 42.0368 68.2124 43.6005 68.2124 45.5004C68.2124 46.627 68.4684 47.4802 68.9804 48.0603ZM99.5687 51.8812V50.6454C98.3936 50.494 97.6633 50.225 97.3779 49.8383C97.0925 49.4516 96.9498 48.6782 96.9498 47.518V41.6669L98.083 40.4059L102.968 47.3415C103.522 48.1317 103.87 48.674 104.013 48.9682C104.156 49.2625 104.227 49.4936 104.227 49.6618C104.227 49.9812 104.055 50.2166 103.711 50.3679C103.367 50.5193 102.825 50.6117 102.087 50.6454V51.8812H114.123V50.6454C113.821 50.5949 113.578 50.5235 113.393 50.431C113.209 50.3385 113.016 50.1494 112.814 49.8635L102.842 36.1184L106.846 32.058C107.887 31.0155 108.961 30.2757 110.069 29.8386C110.69 29.6032 111.53 29.4182 112.587 29.2837V28.0984H101.533V29.2837C102.641 29.3846 103.426 29.5191 103.887 29.6873C104.349 29.8554 104.58 30.2001 104.58 30.7213C104.58 30.9231 104.496 31.1963 104.328 31.541C104.16 31.8856 103.883 32.2513 103.497 32.638L96.9498 39.2206V16.9762H87.2802V18.2372C88.2371 18.4558 88.8918 18.7332 89.2443 19.0695C89.5969 19.4058 89.7732 20.1203 89.7732 21.2132V47.518C89.7732 48.6614 89.5843 49.4138 89.2066 49.7753C88.8289 50.1368 88.1867 50.4268 87.2802 50.6454V51.8812H99.5687ZM119.655 51.465C119.445 51.692 119.206 52.0745 118.937 52.6126H117.704V44.0629H119.139C119.643 46.5344 120.583 48.2789 121.959 49.2961C123.336 50.3133 124.746 50.8219 126.19 50.8219C127.516 50.8219 128.49 50.5235 129.111 49.9266C129.732 49.3297 130.042 48.5437 130.042 47.5685C130.042 46.6437 129.707 45.8535 129.035 45.1978C128.666 44.8447 128.07 44.4664 127.247 44.0629L123.42 42.1965C121.405 41.2045 119.961 40.1285 119.089 38.9683C118.199 37.8082 117.754 36.4379 117.754 34.8574C117.754 32.8566 118.451 31.129 119.844 29.6746C121.237 28.2203 123.185 27.4931 125.686 27.4931C126.777 27.4931 127.936 27.6738 129.161 28.0353C130.387 28.3968 131.15 28.5776 131.453 28.5776C131.872 28.5776 132.17 28.4893 132.346 28.3127C132.523 28.1362 132.67 27.8882 132.787 27.5687H133.92V35.034H132.611C132.124 33.2854 131.327 31.8814 130.219 30.8222C129.111 29.7629 127.818 29.2333 126.341 29.2333C125.199 29.2333 124.347 29.5527 123.785 30.1917C123.222 30.8306 122.941 31.5199 122.941 32.2597C122.941 32.865 123.193 33.4703 123.697 34.0756C124.184 34.6977 125.107 35.3366 126.467 35.9923L129.287 37.3542C131.033 38.1949 132.309 39.0104 133.115 39.8006C134.458 41.1457 135.129 42.8018 135.129 44.769C135.129 46.6858 134.437 48.4722 133.052 50.1283C131.667 51.7845 129.589 52.6126 126.819 52.6126C126.131 52.6126 125.438 52.5411 124.742 52.3982C124.045 52.2553 123.185 52.0073 122.161 51.6542L121.279 51.3515C120.96 51.2338 120.763 51.1666 120.688 51.1498C120.612 51.133 120.515 51.1246 120.398 51.1246C120.113 51.1246 119.865 51.238 119.655 51.465Z" fill="white"/>
<path fill-rule="evenodd" clip-rule="evenodd" d="M48.394 22.5228V23.2623H38.0257V22.5228C39.1619 22.5228 39.9171 22.345 40.2911 21.9894C40.6651 21.6339 40.8521 20.9251 40.8521 19.8632V4.53191C39.4318 4.56984 38.3429 4.79265 37.5854 5.20035C36.1935 5.95886 35.4075 7.37632 35.2276 9.45273H34.3896L34.4181 3.57904H51.9307L51.9591 9.45273H51.1211C50.8465 7.35735 50.0606 5.93989 48.7633 5.20035C48.0342 4.79265 46.9453 4.56984 45.4966 4.53191V19.8632C45.4966 20.9346 45.6836 21.6457 46.0576 21.9965C46.4316 22.3473 47.2104 22.5228 48.394 22.5228ZM60.5236 22.5654V23.2623H53.5214V22.5654C54.0517 22.499 54.4422 22.3545 54.6932 22.1316C54.9441 21.9088 55.0695 21.4656 55.0695 20.8019V5.96834C55.0695 5.38998 54.9654 4.98465 54.7571 4.75236C54.5488 4.52006 54.1369 4.36599 53.5214 4.29014V3.57904H59.1459V11.7709C59.7424 11.0503 60.3697 10.4933 61.0278 10.0998C61.6859 9.70636 62.4268 9.50962 63.2506 9.50962C64.3679 9.50962 65.2911 9.83435 66.0202 10.4838C66.7493 11.1333 67.1139 12.2402 67.1139 13.8047V20.8019C67.1139 21.4561 67.2252 21.8851 67.4477 22.089C67.6702 22.2928 68.0418 22.4516 68.5626 22.5654V23.2623H61.7309V22.5654C62.2517 22.4611 62.6067 22.3189 62.7961 22.1388C62.9855 21.9586 63.0802 21.5509 63.0802 20.9157V13.8616C63.0802 13.1979 63.0139 12.7001 62.8813 12.3682C62.6541 11.7709 62.2043 11.4723 61.532 11.4723C61.0302 11.4723 60.5118 11.7045 59.9768 12.1691C59.4418 12.6337 59.1743 12.9513 59.1743 13.122V20.9157C59.1743 21.5509 59.269 21.9586 59.4583 22.1388C59.6477 22.3189 60.0028 22.4611 60.5236 22.5654ZM75.778 23.6747C76.7722 23.6747 77.6528 23.4898 78.4198 23.1201C79.6034 22.5417 80.6449 21.513 81.5445 20.0339L80.8769 19.6215C80.3277 20.2283 79.8685 20.6597 79.4992 20.9157C78.8932 21.3423 78.2493 21.5557 77.5676 21.5557C76.1378 21.5557 75.1388 20.7545 74.5707 19.1521C74.2582 18.2988 74.0688 17.2891 74.0026 16.1229H81.4166C81.4166 15.8574 81.3835 15.4734 81.3172 14.9709C81.1847 13.8995 80.9479 13.0272 80.6071 12.354C80.1526 11.4628 79.5039 10.7659 78.6612 10.2634C77.8185 9.76087 76.919 9.50962 75.9626 9.50962C74.2866 9.50962 72.8545 10.1283 71.6661 11.3656C70.4778 12.6029 69.8836 14.3404 69.8836 16.578C69.8836 19.0526 70.5086 20.854 71.7584 21.9823C73.0083 23.1106 74.3482 23.6747 75.778 23.6747ZM73.9316 15.042H77.8375C77.8186 13.3259 77.686 12.1265 77.4398 11.4438C77.1936 10.7612 76.7012 10.4198 75.9627 10.4198C75.2052 10.4198 74.6867 10.8133 74.4074 11.6003C74.1281 12.3872 73.9695 13.5344 73.9316 15.042Z" fill="white"/>
</svg>
